<svg xmlns="http://www.w3.org/2000/svg" width="24" height="24" fill="none" viewBox="0 0 24 24">
  <path fill="#171D26" d="M5.058 5.34A15.91 15.91 0 0 1 9.184 4c.178.332.386.779.529 1.134a14.673 14.673 0 0 1 4.573 0c.143-.355.355-.802.534-1.134 1.45.26 2.835.716 4.13 1.343 2.611 4.078 3.319 8.055 2.965 11.975-1.732 1.337-3.41 2.149-5.06 2.68a13.072 13.072 0 0 1-1.084-1.844 10.512 10.512 0 0 0 1.706-.859 8.57 8.57 0 0 1-.418-.342c-3.29 1.59-6.866 1.59-10.118 0-.137.118-.277.233-.418.342.54.337 1.113.626 1.71.86A13.044 13.044 0 0 1 7.149 20c-1.652-.531-3.332-1.343-5.064-2.682-.415-4.544.71-8.484 2.973-11.978Zm10.264 9.568c.988 0 1.798-.954 1.798-2.114s-.793-2.116-1.798-2.116-1.815.953-1.798 2.116c-.001 1.16.793 2.114 1.798 2.114Zm-6.644 0c.988 0 1.798-.954 1.798-2.114s-.793-2.116-1.798-2.116-1.816.953-1.798 2.116c0 1.16.793 2.114 1.798 2.114Z"/>
</svg>
