<svg xmlns="http://www.w3.org/2000/svg" width="24" height="24" fill="none" viewBox="0 0 24 24">
  <path fill="#171D26" d="M17.13 4.02c0 .562-.464 1.018-1.037 1.018a1.028 1.028 0 0 1-1.037-1.019c0-.563.464-1.019 1.037-1.019s1.037.456 1.037 1.02Zm1.166 14.396a1.03 1.03 0 0 1-1.037 1.02 1.028 1.028 0 0 1-1.037-1.02c0-.563.464-1.019 1.037-1.019.572 0 1.037.456 1.037 1.02ZM16.39 7.586c.48 0 .87-.383.87-.855a.863.863 0 0 0-.87-.855c-.481 0-.87.383-.87.855s.389.855.87.855Zm3.183-.527c0 .472-.39.855-.87.855a.863.863 0 0 1-.87-.855c0-.473.39-.855.87-.855s.87.382.87.855Zm-3.48 2.695c.41 0 .741-.326.741-.728a.735.735 0 0 0-.74-.729.736.736 0 0 0-.742.729c0 .402.332.728.741.728Zm3.056-.421a.735.735 0 0 1-.741.729.735.735 0 0 1-.741-.729c0-.402.331-.728.74-.728.41 0 .742.326.742.728Zm1.111 1.439c.408 0 .74-.326.74-.728a.735.735 0 0 0-.74-.728.735.735 0 0 0-.742.728c0 .402.332.728.741.728Zm-1.89.4c0 .352-.29.637-.648.637a.642.642 0 0 1-.648-.636c0-.352.29-.637.648-.637.357 0 .647.285.647.636Zm-2.962.327a.642.642 0 0 0 .647-.636.642.642 0 0 0-.647-.637.642.642 0 0 0-.648.636c0 .352.29.637.648.637Zm4.832.382c0 .352-.29.637-.647.637a.642.642 0 0 1-.647-.637c0-.351.29-.636.647-.636.358 0 .648.285.648.636Zm-3.444 1.258a.551.551 0 0 0 .556-.547.551.551 0 0 0-.556-.546.551.551 0 0 0-.556.546c0 .302.249.547.556.547Zm2.428.144a.552.552 0 0 1-.556.546.551.551 0 0 1-.556-.546c0-.302.249-.547.556-.547.307 0 .556.245.556.547Zm-4.724-.472a.551.551 0 0 0 .556-.546.551.551 0 0 0-.556-.547.551.551 0 0 0-.556.547c0 .302.25.546.556.546Zm1.74.763a.459.459 0 0 1-.463.455.459.459 0 0 1-.462-.455c0-.25.207-.454.462-.454.256 0 .463.203.463.454Zm.334 1.712a.403.403 0 0 0 .407-.4c0-.221-.182-.4-.407-.4a.404.404 0 0 0-.408.4c0 .221.183.4.408.4Zm-.648-.073a.33.33 0 0 1-.334.328.33.33 0 0 1-.333-.328.33.33 0 0 1 .333-.327.33.33 0 0 1 .334.328Zm-1.204-.619a.404.404 0 0 0 .408-.4c0-.221-.183-.4-.408-.4a.404.404 0 0 0-.407.4c0 .221.182.4.407.4Zm-.796-1.328a.459.459 0 0 1-.463.455.459.459 0 0 1-.463-.455.46.46 0 0 1 .463-.455.46.46 0 0 1 .463.455Zm-.481-2.967a.459.459 0 0 0 .463-.455.459.459 0 0 0-.463-.455.459.459 0 0 0-.463.455c0 .25.208.455.463.455Zm.61-2.002c0 .22-.182.4-.407.4a.404.404 0 0 1-.408-.4c0-.221.183-.4.408-.4.225 0 .407.179.407.4Zm.038-.91a.33.33 0 0 0 .333-.328.33.33 0 0 0-.333-.328.33.33 0 0 0-.334.328c0 .181.15.328.334.328Zm-.37-1.019c0 .22-.183.4-.408.4a.404.404 0 0 1-.407-.4c0-.221.183-.4.408-.4.224 0 .407.179.407.4Zm3.907 8.355a.459.459 0 0 0 .463-.455.459.459 0 0 0-.462-.455.459.459 0 0 0-.463.455c0 .25.207.455.463.455Zm-4.908-8.939a.459.459 0 0 1-.463.455.459.459 0 0 1-.463-.455.46.46 0 0 1 .463-.455.46.46 0 0 1 .463.455Zm-.147 2.384a.459.459 0 0 0 .463-.455.459.459 0 0 0-.463-.454.459.459 0 0 0-.463.454c0 .252.207.455.463.455Zm.037 1.293a.551.551 0 0 1-.556.547.551.551 0 0 1-.556-.547c0-.302.25-.547.556-.547.307 0 .556.245.556.547Zm-2.242.547a.642.642 0 0 0 .648-.637.642.642 0 0 0-.648-.636.642.642 0 0 0-.648.636c0 .352.29.637.648.637Zm-1.222-.291a.735.735 0 0 1-.74.728.735.735 0 0 1-.742-.728c0-.403.332-.729.741-.729.41 0 .741.326.741.729ZM6.26 11.482c.48 0 .87-.383.87-.855a.863.863 0 0 0-.87-.856c-.48 0-.87.383-.87.855 0 .473.39.856.87.856Zm-1.186.728c0 .563-.464 1.02-1.037 1.02A1.028 1.028 0 0 1 3 12.21c0-.563.464-1.019 1.037-1.019s1.037.456 1.037 1.02Zm.316-2.858c.48 0 .87-.383.87-.856a.863.863 0 0 0-.87-.855c-.48 0-.87.383-.87.855 0 .473.39.856.87.856Zm2.888-1.766a.735.735 0 0 1-.74.729.735.735 0 0 1-.742-.729c0-.402.332-.728.741-.728.41 0 .741.326.741.728Zm-1.055-1.2c.41 0 .741-.327.741-.729a.735.735 0 0 0-.74-.728.735.735 0 0 0-.742.728c0 .402.332.729.741.729Zm2.611-1.074c0 .352-.29.637-.648.637a.642.642 0 0 1-.648-.637c0-.351.29-.636.648-.636.358 0 .648.285.648.636Zm1.036.638a.551.551 0 0 0 .557-.547.551.551 0 0 0-.557-.547.551.551 0 0 0-.556.547c0 .302.25.547.556.547Zm.87 1.383a.551.551 0 0 1-.556.546.551.551 0 0 1-.556-.546c0-.302.25-.547.556-.547.308 0 .557.245.557.547Zm-2.24.563a.642.642 0 0 0 .648-.637.642.642 0 0 0-.648-.637.642.642 0 0 0-.648.637c0 .352.29.637.648.637ZM8 12.41a.33.33 0 0 1-.333.329.33.33 0 0 1-.334-.328.33.33 0 0 1 .334-.328.33.33 0 0 1 .333.328Zm1 .163a.404.404 0 0 0 .407-.4c0-.22-.183-.4-.408-.4a.404.404 0 0 0-.407.4c0 .221.183.4.407.4Zm1.926-1a.459.459 0 0 1-.463.455.459.459 0 0 1-.463-.455c0-.252.208-.455.463-.455a.46.46 0 0 1 .463.455Zm-.111 1.911a.551.551 0 0 0 .556-.546.551.551 0 0 0-.556-.547.551.551 0 0 0-.556.547.55.55 0 0 0 .556.546ZM9.5 13.375a.459.459 0 0 1-.463.455.459.459 0 0 1-.463-.455c0-.251.207-.455.463-.455s.463.204.463.455Zm-2.036.435a.403.403 0 0 0 .407-.4c0-.22-.182-.4-.407-.4a.404.404 0 0 0-.407.4c0 .221.182.4.407.4Zm.481.803a.459.459 0 0 1-.463.455.459.459 0 0 1-.463-.455c0-.252.207-.455.463-.455s.463.204.463.455Zm1.425.692a.552.552 0 0 0 .557-.547.551.551 0 0 0-.556-.547.551.551 0 0 0-.557.547c0 .302.25.547.557.547Zm2.852-.875c0 .352-.29.637-.648.637a.642.642 0 0 1-.648-.637c0-.351.29-.636.648-.636.358 0 .648.285.648.636Zm.648 2.221c.41 0 .742-.326.742-.728a.735.735 0 0 0-.741-.728.734.734 0 0 0-.741.728c0 .402.331.728.74.728Zm-2.075-.42c0 .352-.29.637-.647.637a.642.642 0 0 1-.648-.637c0-.351.29-.636.648-.636.357 0 .647.285.647.636Zm-2.184 1.876a.642.642 0 0 0 .648-.637.642.642 0 0 0-.648-.636.642.642 0 0 0-.647.636c0 .352.29.637.647.637Zm2.019.873a.735.735 0 0 1-.741.729.735.735 0 0 1-.741-.729c0-.402.332-.728.74-.728.41 0 .742.326.742.728ZM13.296 20c.48 0 .87-.383.87-.855a.863.863 0 0 0-.87-.855c-.48 0-.87.383-.87.855s.39.855.87.855Zm-1.128-2.257a.735.735 0 0 1-.741.729.735.735 0 0 1-.741-.729c0-.402.332-.728.74-.728.41 0 .742.326.742.728Zm2.555.437c.48 0 .87-.383.87-.855a.863.863 0 0 0-.87-.856.863.863 0 0 0-.87.856c0 .472.389.855.87.855ZM8.39 15.996a.551.551 0 0 1-.557.546.551.551 0 0 1-.556-.546c0-.302.25-.547.556-.547.307 0 .556.245.556.547Z"/>
</svg>
