<svg xmlns="http://www.w3.org/2000/svg" width="24" height="24" fill="none" viewBox="0 0 24 24">
  <path fill="#171D26" fill-rule="evenodd" d="M18.206 4.005A4 4 0 0 1 22 8v8l-.005.206a4 4 0 0 1-3.789 3.79L18 20H6l-.206-.005A4 4 0 0 1 2 16V8a4 4 0 0 1 3.794-3.995L6 4h12l.206.005Zm-4.23 8.596a3 3 0 0 1-3.733.173l-.219-.173L4.09 7.406A2 2 0 0 0 4 8v8a2 2 0 0 0 2 2h12a2 2 0 0 0 2-2V8a2 2 0 0 0-.09-.594l-5.934 5.195ZM6 6c-.147 0-.29.017-.428.047l5.77 5.048.073.058a1 1 0 0 0 1.244-.058l5.768-5.048A2.005 2.005 0 0 0 18 6H6Z" clip-rule="evenodd"/>
</svg>
