<svg xmlns="http://www.w3.org/2000/svg" width="24" height="24" fill="none" viewBox="0 0 24 24">
  <path fill="#171D26" fill-rule="evenodd" d="M18.5 9.5c.967 0 1.791.342 2.475 1.025A3.372 3.372 0 0 1 22 13a3.31 3.31 0 0 1-.638 2c-.425.583-.962 1-1.612 1.25v3.25h1.225v2H17.5v-5.15a3.445 3.445 0 0 1-1.8-1.238C15.234 14.504 15 13.8 15 13c0-.967.342-1.791 1.025-2.475A3.372 3.372 0 0 1 18.5 9.5Zm0 2a1.5 1.5 0 1 0 0 3 1.5 1.5 0 0 0 0-3Z" clip-rule="evenodd"/>
  <path fill="#171D26" d="M11 12.5a13.366 13.366 0 0 1 2 .15c-.067.967.109 1.88.525 2.738A5.375 5.375 0 0 0 15.35 17.5v2H3v-2.8c0-.566.146-1.087.438-1.562A2.917 2.917 0 0 1 4.6 14.05a14.844 14.844 0 0 1 3.15-1.162A13.76 13.76 0 0 1 11 12.5Zm0-9c1.1 0 2.042.391 2.825 1.175C14.61 5.458 15 6.4 15 7.5s-.392 2.042-1.175 2.825C13.042 11.11 12.1 11.5 11 11.5s-2.042-.392-2.825-1.175C7.39 9.542 7 8.6 7 7.5s.391-2.042 1.175-2.825C8.958 3.89 9.9 3.5 11 3.5Z"/>
</svg>
