<svg xmlns="http://www.w3.org/2000/svg" width="24" height="24" fill="none" viewBox="0 0 24 24">
    <path fill="#171D26" fill-rule="evenodd" clip-rule="evenodd" d="M18.5 9.5C19.4667 9.5 20.2913 9.84206 20.9746 10.5254C21.6579 11.2087 22 12.0333 22 13C22 13.75 21.7873 14.4167 21.3623 15C20.9373 15.5833 20.4 16 19.75 16.25V19.5H20.9746V21.5H17.5V16.3496C16.7667 16.1329 16.1668 15.7206 15.7002 15.1123C15.2335 14.504 15 13.8 15 13C15 12.0333 15.3421 11.2087 16.0254 10.5254C16.7087 9.84206 17.5333 9.5 18.5 9.5ZM18.5 11.5C17.6716 11.5 17 12.1716 17 13C17 13.8284 17.6716 14.5 18.5 14.5C19.3284 14.5 20 13.8284 20 13C20 12.1716 19.3284 11.5 18.5 11.5Z"/>
    <path fill="#171D26" d="M11 12.5C11.3333 12.5 11.6667 12.5121 12 12.5371C12.3333 12.5621 12.6667 12.6004 13 12.6504C12.9334 13.6169 13.1088 14.5295 13.5254 15.3877C13.942 16.2458 14.5498 16.9501 15.3496 17.5V19.5H3V16.7002C3 16.1336 3.14589 15.6127 3.4375 15.1377C3.72912 14.6628 4.11638 14.2998 4.59961 14.0498C5.63293 13.5331 6.68335 13.146 7.75 12.8877C8.81667 12.6294 9.9 12.5 11 12.5Z"/>
    <path fill="#171D26" d="M11 3.5C12.1 3.5 13.0419 3.89147 13.8252 4.6748C14.6085 5.45814 15 6.4 15 7.5C15 8.6 14.6085 9.54186 13.8252 10.3252C13.0419 11.1085 12.1 11.5 11 11.5C9.9 11.5 8.95814 11.1085 8.1748 10.3252C7.39147 9.54186 7 8.6 7 7.5C7 6.4 7.39147 5.45814 8.1748 4.6748C8.95814 3.89147 9.9 3.5 11 3.5Z"/>
</svg>
