<svg xmlns="http://www.w3.org/2000/svg" width="24" height="24" fill="none" viewBox="0 0 24 24">
  <path fill="#171D26" fill-rule="evenodd" d="M12 3a9 9 0 1 1 0 18 9 9 0 0 1 0-18Zm-.241 12.999c-.347 0-.643.122-.889.366a1.186 1.186 0 0 0-.36.88 1.21 1.21 0 0 0 .36.889c.246.244.543.366.889.366.221 0 .425-.056.612-.167a1.35 1.35 0 0 0 .452-.456c.118-.192.18-.403.183-.633a1.205 1.205 0 0 0-.38-.879 1.203 1.203 0 0 0-.867-.366ZM11.972 7c-.627 0-1.201.113-1.721.34-.52.223-.937.563-1.252 1.02-.315.454-.482 1.03-.499 1.728h2.12c.01-.286.08-.526.208-.718.128-.195.293-.342.494-.44.201-.1.414-.15.639-.15.232 0 .443.048.634.146.194.097.348.237.463.419.114.181.171.392.171.633 0 .226-.05.432-.15.617a1.88 1.88 0 0 1-.406.498 4.93 4.93 0 0 1-.577.433 3.584 3.584 0 0 0-.738.608c-.204.223-.36.516-.467.879-.104.363-.158.85-.162 1.46v.177h1.97v-.177a2.68 2.68 0 0 1 .13-.864c.087-.233.217-.439.39-.617a3.41 3.41 0 0 1 .676-.513c.325-.195.607-.413.846-.654.24-.244.424-.524.556-.838.135-.317.203-.68.203-1.088 0-.61-.15-1.132-.452-1.565a2.84 2.84 0 0 0-1.247-.988c-.53-.23-1.14-.346-1.83-.346Z" clip-rule="evenodd"/>
</svg>
