<svg xmlns="http://www.w3.org/2000/svg" width="24" height="24" fill="none" viewBox="0 0 24 24">
  <path fill="#171D26" fill-rule="evenodd" d="M3.175 18.825C3.958 19.608 4.9 20 6 20h12c1.1 0 2.042-.392 2.825-1.175C21.608 18.042 22 17.1 22 16V8c0-1.1-.392-2.042-1.175-2.825C20.042 4.392 19.1 4 18 4H6c-1.1 0-2.042.392-2.825 1.175C2.392 5.958 2 6.9 2 8v8c0 1.1.392 2.042 1.175 2.825ZM18 8H6c-.367 0-.717.042-1.05.125a3.39 3.39 0 0 0-.95.4V8c0-.55.196-1.02.588-1.412A1.926 1.926 0 0 1 6 6h12c.55 0 1.02.196 1.413.588.391.391.587.862.587 1.412v.525a3.39 3.39 0 0 0-.95-.4A4.314 4.314 0 0 0 18 8Zm2 5a2 2 0 1 1-4 0 2 2 0 0 1 4 0Z" clip-rule="evenodd"/>
</svg>
